<svg xmlns="http://www.w3.org/2000/svg" width="34.349" height="35.998" viewBox="0 0 34.349 35.998">
  <path id="hubspot" d="M27.246,11.9V7.627a3.3,3.3,0,0,0,1.9-2.967v-.1a3.3,3.3,0,0,0-3.288-3.29h-.1a3.3,3.3,0,0,0-3.29,3.288v.1a3.294,3.294,0,0,0,1.878,2.96l.019.009v4.278a9.33,9.33,0,0,0-4.454,1.965l.018-.013L8.185,4.714A3.745,3.745,0,1,0,6.449,6.986L6.431,7l11.544,8.986a9.362,9.362,0,0,0,.163,10.578l-.019-.028-3.513,3.513a2.952,2.952,0,0,0-.87-.143h0a3.05,3.05,0,1,0,3.05,3.05,2.967,2.967,0,0,0-.149-.892l.006.021L20.116,28.6a9.37,9.37,0,1,0,7.173-16.7l-.054-.007ZM25.8,25.962a4.809,4.809,0,1,1,4.821-4.809v0a4.809,4.809,0,0,1-4.809,4.809Z" transform="translate(-0.822 -0.003)" fill="#e9b34e"/>
</svg>
